<svg xmlns="http://www.w3.org/2000/svg" width="33" height="33" fill="none" viewBox="0 0 48 48"><path fill="#cbcbcb" fill-rule="evenodd" d="M22.72 6.36v6.768L8.64 21.88c-.96.72-1.34 1.96-.96 3.08a2.75 2.75 0 0 0 2.62 1.9h2.221c-.454 4.26-2.852 8.061-6.92 13.26a2.765 2.765 0 0 0 2.16 4.48H40.7c1.04 0 2.02-.62 2.48-1.56.46-.94.34-2.1-.32-2.92-4.07-5.199-6.467-9-6.921-13.26h2.22c1.2 0 2.24-.76 2.64-1.9.36-1.12-.02-2.36-1.08-3.16l-12.474-7.74 4.655-2.42a2.779 2.779 0 0 0 0-4.8l-5.04-2.88c-.86-.5-1.92-.5-2.76 0-.86.5-1.38 1.42-1.38 2.4Zm3 35.24h4.46l-4.46-6.188V41.6Zm-3 0v-6.13L18.3 41.6h4.42Zm.878-11.263c-.646.135-1.238.477-1.618 1.023L14.588 41.6H8.24c3.6-4.6 6.78-9.24 7.3-14.74h17.4c.5 5.52 3.7 10.14 7.28 14.74h-6.346L26.5 31.36c-.401-.564-1.018-.907-1.681-1.033a1.473 1.473 0 0 0-1.22.01Zm10.78-6.477h2.962l-13.12-8.12-13.1 8.12H34.378ZM25.72 6.76v4.72l4.32-2.26-4.32-2.46Z" clip-rule="evenodd"/></svg>